# xmcd
#
# Track frame offsets:
#	150
#	13940
#	31370
#	54378
#	69384
#	84992
#	103421
#	118041
#	130109
#	145569
#	160272
#	180921
#	198448
#	215596
#	232741
#	248701
#	264129
#	281779
#	297387
#
# Disc length: 4238 seconds
#
# Revision: 1
# Processed by: cddbd v1.5.2PL0 Copyright (c) Steve Scherf et al.
# Submitted via: audiograbber 1.83.01
#
DISCID=0b108c13
DTITLE=Various Artist - Double Cream, The Best Of Cream Of Country 2 - Disc 1
DYEAR=1900
DGENRE=Country
TTITLE0=Tim McGraw - Something Like That
TTITLE1=Taylor Swift - You Belong With Me
TTITLE2=Alan Jackson - Good Time
TTITLE3=Carrie Underwood - Before He Cheats
TTITLE4=Kenny Chesney - Never Wanted Nothing More
TTITLE5=Miranda Lambert - Famous In A Small Town
TTITLE6=Brad Paisley - I'm Gonna Miss Her
TTITLE7=Rodney Atkins - 15 Minutes
TTITLE8=Sugarland - Settlin
TTITLE9=Brooks and Dunn - Play Something Country
TTITLE10=Martina McBride - Blessed
TTITLE11=Lonestar - Everything Changed
TTITLE12=Sara Evans - Suds In The Bucket
TTITLE13=Toby Keith - As Good As I Once Was
TTITLE14=Terri Clark - Girls Lie Too
TTITLE15=George Strait - I Saw God Today
TTITLE16=Jamie O'Neal - There Is No Arizona
TTITLE17=Chuck Wicks - All I Ever Wanted
TTITLE18=Willie Nelson and Lee Ann Womack - Mendocino County Line
EXTD=
EXTT0=
EXTT1=
EXTT2=
EXTT3=
EXTT4=
EXTT5=
EXTT6=
EXTT7=
EXTT8=
EXTT9=
EXTT10=
EXTT11=
EXTT12=
EXTT13=
EXTT14=
EXTT15=
EXTT16=
EXTT17=
EXTT18=
PLAYORDER=
